# xmcd
#
# Track frame offsets:
# 150
# 39645
# 63557
# 93200
# 113560
# 135837
# 169477
# 193835
#
# Disc length: 2745 seconds
#
#
# Revision: 3
# Processed by: cddbd v1.5.1PL0 Copyright (c) Steve Scherf et al.
# Submitted via: FreeRIP 2.93 
#
DISCID=680ab708
DTITLE=Various Artist - Calle 54 - Disco B
DYEAR=2000
DGENRE=Jazz
TTITLE0=Chico O'Farril - Afro-Cuban Jazz Suite
TTITLE1=Bebo Valdes Y cachao - Lagrimas Negras
TTITLE2=Puntilla Y Nueva Generacion - Compa Galletano
TTITLE3=Bebo Valdes Y Chucho Valdes - La Comparsa
TTITLE4=Eliane Elias - That's all it was
TTITLE5=Jerry Gonzalez Y Chano Dominguez - Como Fue
TTITLE6=Paquito D'Rivera and Co - Parsian Thoroughfare
TTITLE7=Jerry Gonzalez and The Fort Apache Band - Creditos Finales
EXTD=ID3G:   0
EXTT0=
EXTT1=
EXTT2=
EXTT3=
EXTT4=
EXTT5=
EXTT6=
EXTT7=
PLAYORDER=
